<?xml version="1.0" standalone="no"?><!DOCTYPE svg PUBLIC "-//W3C//DTD SVG 1.1//EN" "http://www.w3.org/Graphics/SVG/1.1/DTD/svg11.dtd"><svg t="1551409649991" class="icon" style="" viewBox="0 0 1024 1024" version="1.1" xmlns="http://www.w3.org/2000/svg" p-id="1848" xmlns:xlink="http://www.w3.org/1999/xlink" width="200" height="200"><defs><style type="text/css"></style></defs><path d="M993.28 985.6l-10.24 10.24c-10.24 10.24-33.28 10.24-43.52 0l-74.24-66.56c-28.16 17.92-58.88 28.16-92.16 28.16-97.28 0-174.08-79.36-174.08-174.08 0-97.28 76.8-174.08 174.08-174.08s174.08 79.36 174.08 174.08c0 35.84-10.24 66.56-28.16 94.72l74.24 66.56c12.8 7.68 10.24 28.16 0 40.96z m-220.16-302.08c-53.76 0-97.28 43.52-97.28 99.84 0 53.76 43.52 99.84 97.28 99.84s97.28-43.52 97.28-99.84-43.52-99.84-97.28-99.84z m104.96-135.68V115.2H140.8v716.8h378.88c0 38.4 30.72 69.12 43.52 89.6H115.2c-33.28 0-61.44-28.16-61.44-64v-768C53.76 53.76 81.92 25.6 115.2 25.6h791.04c33.28 0 61.44 28.16 61.44 64v522.24c-23.04-20.48-58.88-51.2-89.6-64zM268.8 235.52h486.4c20.48 0 38.4 17.92 38.4 38.4s-17.92 38.4-38.4 38.4h-486.4c-20.48 0-38.4-17.92-38.4-38.4 0-23.04 17.92-38.4 38.4-38.4z m0 179.2h486.4c20.48 0 38.4 17.92 38.4 38.4s-17.92 38.4-38.4 38.4h-486.4c-20.48 0-38.4-17.92-38.4-38.4 0-23.04 17.92-38.4 38.4-38.4z" fill="#ffffff" p-id="1849"></path></svg>