<?xml version="1.0" standalone="no"?><!DOCTYPE svg PUBLIC "-//W3C//DTD SVG 1.1//EN" "http://www.w3.org/Graphics/SVG/1.1/DTD/svg11.dtd"><svg t="1550109459935" class="icon" style="" viewBox="0 0 1024 1024" version="1.1" xmlns="http://www.w3.org/2000/svg" p-id="1252" xmlns:xlink="http://www.w3.org/1999/xlink" width="200" height="200"><defs><style type="text/css"></style></defs><path d="M960 1024H64a64 64 0 0 1-64-64v-192a64 64 0 0 1 64-64V448a64 64 0 0 1-37.12-115.84l448-320a64 64 0 0 1 74.24 0l448 320A64 64 0 0 1 960 448v256a64 64 0 0 1 64 64v192a64 64 0 0 1-64 64zM128 896h768v-64H128z m576-192h128V448h-128z m-256 0h128V448H448z m-256 0h128V448H192z m71.68-384h496.64L512 142.72z" fill="#ffffff" p-id="1253"></path></svg>