<?xml version="1.0" standalone="no"?><!DOCTYPE svg PUBLIC "-//W3C//DTD SVG 1.1//EN" "http://www.w3.org/Graphics/SVG/1.1/DTD/svg11.dtd"><svg t="1544950577439" class="icon" style="" viewBox="0 0 1024 1024" version="1.1" xmlns="http://www.w3.org/2000/svg" p-id="3970" xmlns:xlink="http://www.w3.org/1999/xlink" width="200" height="200"><defs><style type="text/css"></style></defs><path d="M896 128l0 768L128 896 128 128 896 128M1024 0 0 0l0 1024 1024 0L1024 0 1024 0z" p-id="3971"></path><path d="M192 192l320 0 0 128-320 0 0-128Z" p-id="3972"></path><path d="M192 384l640 0 0 64-640 0 0-64Z" p-id="3973"></path><path d="M192 512l640 0 0 64-640 0 0-64Z" p-id="3974"></path><path d="M192 640l640 0 0 64-640 0 0-64Z" p-id="3975"></path><path d="M192 768l640 0 0 64-640 0 0-64Z" p-id="3976"></path></svg>