<?xml version="1.0" standalone="no"?><!DOCTYPE svg PUBLIC "-//W3C//DTD SVG 1.1//EN" "http://www.w3.org/Graphics/SVG/1.1/DTD/svg11.dtd"><svg t="1551409828011" class="icon" style="" viewBox="0 0 1024 1024" version="1.1" xmlns="http://www.w3.org/2000/svg" p-id="3088" xmlns:xlink="http://www.w3.org/1999/xlink" width="200" height="200"><defs><style type="text/css"></style></defs><path d="M512.189312 45.720298 136.567375 269.235954l-3.560082 699.030697 755.002476 2.542916 0.938372-697.526437L512.189312 45.720298zM613.162004 888.018979l-198.230784-0.668219L414.931221 724.155934c0-54.738695 44.363394-99.113345 99.115392-99.113345 54.739718 0 99.115392 44.388976 99.115392 99.113345L613.162004 888.018979zM806.255791 888.669802l-108.137883-0.364297L698.117908 699.819666c0-88.26016-71.559802-159.831218-159.833265-159.831218l-48.476061 0c-88.278579 0-159.833265 71.558779-159.833265 159.831218l0 187.244568-114.686019-0.38681 2.90619-570.753125 293.680692-174.755116L807.022247 319.438333 806.255791 888.669802zM534.004153 364.595812a69.184 69.265 0 1 0 141.592832 0 69.184 69.265 0 1 0-141.592832 0Z" p-id="3089" fill="#ffffff"></path></svg>