<?xml version="1.0" standalone="no"?><!DOCTYPE svg PUBLIC "-//W3C//DTD SVG 1.1//EN" "http://www.w3.org/Graphics/SVG/1.1/DTD/svg11.dtd"><svg t="1545623961531" class="icon" style="" viewBox="0 0 1024 1024" version="1.1" xmlns="http://www.w3.org/2000/svg" p-id="1096" xmlns:xlink="http://www.w3.org/1999/xlink" width="170" height="170"><defs><style type="text/css"></style></defs><path d="M512 64C264.576 64 64 264.576 64 512c0 247.36 200.576 448 448 448 247.424 0 448-200.64 448-448C960 264.576 759.424 64 512 64zM689.728 478.464l0 94.656L564.48 573.12l0 32.832 125.248 0 0 94.784L564.48 700.736l0 91.008L471.168 791.744l0-91.008L349.44 700.736 349.44 605.952l121.728 0L471.168 573.12 349.44 573.12 349.44 478.464l71.104 0L301.312 258.688l107.712 0L512 448.256l102.912-189.568 107.776 0L603.456 478.464 689.728 478.464z" p-id="1097"></path></svg>